# xmcd
#
# Track frame offsets:
#	150
#	12828
#	26083
#	39299
#	51196
#	61408
#	72316
#	80820
#	96175
#	111304
#	124988
#	139556
#	153649
#	169086
#	184234
#
# Disc length: 2677 seconds
#
# Revision: 3
# Processed by: cddbd v1.5.2PL0 Copyright (c) Steve Scherf et al.
# Submitted via: audiograbber 1.83.01
#
DISCID=d20a730f
DTITLE=Various Artist - The Country Collection - Volume 1 (Sunday Express Newspaper - 
DTITLE=UK)
DYEAR=2006
DGENRE=Country
TTITLE0=Johnny Cash - Ring Of Fire
TTITLE1=Charlie Rich - The Most Beautiful Girl In The World
TTITLE2=Dottie West - D.I.V.O.R.C.E.
TTITLE3=Kenny Rogers - Me And Bobby McGee
TTITLE4=Dolly Parton - Release Me
TTITLE5=Loretta Lynn - Crazy
TTITLE6=Glen Campbell - Wichita Lineman
TTITLE7=Jolene Parsons - Don't It Make My Brown Eyes Blue
TTITLE8=Fergus Langston - Let Me Go
TTITLE9=Randall Hesper - Not Today
TTITLE10=Eileen Reeves - I'm Sorry
TTITLE11=Penny Pules - Happiness
TTITLE12=Jerry Hesper - Just Choose
TTITLE13=Johnny Hesper - Maybe She Will
TTITLE14=Glynnis Eman - You're Here
EXTD=CDDBSort:various,country_collection_volume_1_sunday_express_newspaper_uk;
EXTT0=
EXTT1=
EXTT2=
EXTT3=
EXTT4=
EXTT5=
EXTT6=
EXTT7=
EXTT8=
EXTT9=
EXTT10=
EXTT11=
EXTT12=
EXTT13=
EXTT14=
PLAYORDER=
